<svg xmlns="http://www.w3.org/2000/svg" viewBox="5 22 500 137" fill="none">
  <path d="M222.095 93.8447C226.941 93.8447 231.384 94.5938 235.423 96.0908C239.462 97.5879 242.982 99.6951 245.982 102.412C248.983 105.129 251.291 108.346 252.906 112.061C254.579 115.72 255.416 119.74 255.416 124.12C255.416 128.501 254.579 132.576 252.906 136.347C251.291 140.062 248.983 143.306 245.982 146.078C242.982 148.795 239.462 150.93 235.423 152.482C231.384 153.979 226.941 154.728 222.095 154.728C217.248 154.728 212.805 153.979 208.767 152.482C204.728 150.93 201.208 148.795 198.208 146.078C195.208 143.306 192.871 140.062 191.197 136.347C189.582 132.632 188.773 128.556 188.773 124.12C188.773 119.684 189.582 115.636 191.197 111.977C192.871 108.262 195.208 105.074 198.208 102.412C201.208 99.6952 204.728 97.5879 208.767 96.0908C212.805 94.5938 217.248 93.8447 222.095 93.8447ZM345.909 129.193C345.909 132.077 346.804 134.379 348.593 136.098C350.381 137.816 352.43 138.676 354.737 138.676C357.045 138.676 358.978 137.816 360.536 136.098C362.152 134.379 362.959 132.077 362.959 129.193V95.0928H383.039V129.193C383.039 134.35 381.856 138.842 379.49 142.668C377.182 146.494 373.894 149.46 369.624 151.567C365.412 153.674 360.42 154.728 354.65 154.728C348.881 154.727 343.832 153.674 339.505 151.567C335.178 149.46 331.802 146.494 329.379 142.668C327.013 138.842 325.83 134.35 325.83 129.193V95.0928H345.909V129.193ZM420.705 93.8447C423.821 93.8447 426.937 94.2886 430.053 95.1758C433.226 96.063 436.197 97.311 438.967 98.9189C441.794 100.527 444.246 102.44 446.323 104.658L434.726 117.882C432.937 115.442 430.773 113.502 428.234 112.061C425.753 110.619 423.33 109.897 420.965 109.897C419.176 109.897 417.503 110.258 415.945 110.979C414.445 111.644 413.118 112.614 411.964 113.89C410.81 115.109 409.916 116.579 409.281 118.298C408.704 119.961 408.415 121.791 408.415 123.787C408.415 125.839 408.704 127.724 409.281 129.443C409.916 131.162 410.81 132.659 411.964 133.935C413.118 135.154 414.445 136.125 415.945 136.846C417.503 137.511 419.176 137.844 420.965 137.844C423.157 137.844 425.495 137.234 427.976 136.014C430.514 134.738 432.764 133.075 434.726 131.023L446.323 142.917C444.073 145.301 441.477 147.381 438.534 149.155C435.649 150.93 432.591 152.316 429.36 153.314C426.187 154.257 423.042 154.728 419.926 154.728C415.252 154.727 410.954 153.979 407.03 152.482C403.165 150.93 399.789 148.795 396.904 146.078C394.019 143.306 391.769 140.062 390.153 136.347C388.596 132.576 387.817 128.473 387.817 124.037C387.817 119.657 388.625 115.636 390.24 111.977C391.856 108.317 394.135 105.129 397.077 102.412C400.077 99.6951 403.569 97.5879 407.55 96.0908C411.589 94.5937 415.974 93.8447 420.705 93.8447ZM98.2314 95.0928C106.136 95.0928 112.252 96.9226 116.579 100.582C120.906 104.186 123.07 109.316 123.07 115.97C123.07 123.012 120.906 128.501 116.579 132.438C112.252 136.319 106.136 138.26 98.2314 138.26H89.8359V153.397H69.7568V95.0928H98.2314ZM158.43 95.0928C166.68 95.0928 173.056 96.9225 177.557 100.582C182.057 104.186 184.308 109.316 184.308 115.97C184.308 123.011 182.057 128.501 177.557 132.438C176.675 133.198 175.719 133.883 174.693 134.494L186.644 153.397H163.969L156.657 138.26H149.169V153.397H129.09V95.0928H158.43ZM288.114 95.0928C293.134 95.0928 297.663 95.7857 301.702 97.1719C305.741 98.5026 309.203 100.444 312.088 102.994C314.973 105.545 317.194 108.622 318.752 112.227C320.31 115.775 321.089 119.767 321.089 124.203C321.089 128.639 320.281 132.659 318.665 136.264C317.107 139.812 314.857 142.89 311.914 145.496C308.972 148.047 305.424 150.015 301.27 151.401C297.115 152.732 292.47 153.397 287.335 153.397H261.024V95.0928H288.114ZM501.149 110.313H483.84V153.397H463.761V110.313H446.538V95.0928H501.149V110.313ZM222.354 109.897C220.624 109.897 218.95 110.258 217.335 110.979C215.777 111.644 214.392 112.642 213.181 113.973C212.027 115.248 211.104 116.746 210.411 118.465C209.719 120.184 209.372 122.096 209.372 124.203C209.372 126.255 209.719 128.168 210.411 129.942C211.103 131.717 212.055 133.269 213.267 134.6C214.478 135.875 215.863 136.874 217.421 137.595C218.979 138.316 220.624 138.676 222.354 138.676C224.085 138.676 225.701 138.316 227.201 137.595C228.701 136.874 230.029 135.875 231.183 134.6C232.336 133.269 233.231 131.717 233.865 129.942C234.5 128.168 234.817 126.255 234.817 124.203C234.817 122.096 234.5 120.184 233.865 118.465C233.231 116.746 232.337 115.248 231.183 113.973C230.029 112.642 228.701 111.644 227.201 110.979C225.701 110.258 224.085 109.897 222.354 109.897ZM281.104 138.426H288.633C290.479 138.426 292.124 138.093 293.566 137.428C295.009 136.762 296.25 135.819 297.288 134.6C298.384 133.38 299.192 131.91 299.711 130.191C300.288 128.473 300.577 126.532 300.577 124.37C300.577 122.208 300.26 120.267 299.625 118.548C299.048 116.773 298.182 115.248 297.028 113.973C295.932 112.698 294.576 111.728 292.961 111.062C291.403 110.397 289.642 110.064 287.681 110.064H281.104V138.426ZM89.8359 123.621H97.1924C99.3849 123.621 101.059 123.011 102.213 121.791C103.424 120.516 104.03 118.769 104.03 116.552C104.03 114.39 103.424 112.726 102.213 111.562C101.059 110.342 99.3849 109.731 97.1924 109.731H89.8359V123.621ZM149.169 123.621H158.43C160.622 123.621 162.295 123.011 163.449 121.791C164.661 120.516 165.267 118.769 165.267 116.552C165.267 114.389 164.661 112.726 163.449 111.562C162.295 110.342 160.622 109.732 158.43 109.731H149.169V123.621ZM48.6221 94.9814C50.7864 94.9814 52.7706 95.3158 54.5742 95.9844C56.3778 96.6529 57.9492 97.5943 59.2891 98.8076C60.6289 100.021 61.6604 101.457 62.3818 103.116C63.129 104.75 63.502 106.546 63.502 108.502C63.5019 110.458 63.129 112.278 62.3818 113.962C61.6604 115.621 60.6289 117.07 59.2891 118.308C57.9493 119.521 56.3776 120.474 54.5742 121.167C52.7706 121.836 50.7864 122.17 48.6221 122.17C46.4577 122.17 44.4736 121.836 42.6699 121.167C40.8665 120.474 39.2948 119.521 37.9551 118.308C36.6153 117.07 35.5714 115.621 34.8242 113.962C34.1028 112.303 33.7422 110.483 33.7422 108.502C33.7422 106.521 34.1028 104.713 34.8242 103.079C35.5714 101.42 36.6152 99.9962 37.9551 98.8076C39.2949 97.5943 40.8663 96.6529 42.6699 95.9844C44.4736 95.3158 46.4577 94.9814 48.6221 94.9814ZM34.1533 102.336H26.4238V121.576H17.457V102.336H9.76562V95.5391H34.1533V102.336ZM48.7383 102.15C47.9653 102.15 47.2176 102.311 46.4961 102.633C45.8004 102.93 45.1827 103.376 44.6416 103.971C44.1263 104.54 43.7135 105.208 43.4043 105.976C43.0951 106.743 42.9404 107.598 42.9404 108.539C42.9405 109.455 43.0952 110.309 43.4043 111.102C43.7135 111.894 44.1386 112.587 44.6797 113.182C45.2208 113.751 45.8395 114.197 46.5352 114.519C47.2308 114.84 47.9653 115.002 48.7383 115.002C49.5112 115.002 50.2325 114.84 50.9023 114.519C51.5722 114.197 52.1654 113.751 52.6807 113.182C53.1959 112.587 53.5945 111.894 53.8779 111.102C54.1613 110.309 54.3037 109.455 54.3037 108.539C54.3037 107.598 54.1614 106.743 53.8779 105.976C53.5946 105.208 53.1957 104.54 52.6807 103.971C52.1653 103.376 51.5723 102.93 50.9023 102.633C50.2325 102.311 49.5111 102.15 48.7383 102.15ZM162.514 25.8984C167.36 25.8984 171.804 26.6474 175.843 28.1445C179.881 29.6416 183.401 31.748 186.401 34.4648C189.402 37.1818 191.71 40.3983 193.325 44.1133C194.998 47.7729 195.835 51.7934 195.835 56.1738C195.835 60.5542 194.998 64.63 193.325 68.4004C191.71 72.1152 189.402 75.3585 186.401 78.1309C183.401 80.8478 179.882 82.9826 175.843 84.5352C171.804 86.0323 167.36 86.7812 162.514 86.7812C157.667 86.7812 153.224 86.0322 149.186 84.5352C145.147 82.9826 141.627 80.8478 138.627 78.1309C135.627 75.3585 133.289 72.1153 131.616 68.4004C130.001 64.6854 129.193 60.6096 129.193 56.1738C129.193 51.738 130.001 47.6899 131.616 44.0303C133.289 40.3152 135.627 37.1264 138.627 34.4648C141.627 31.748 145.147 29.6416 149.186 28.1445C153.224 26.6475 157.667 25.8985 162.514 25.8984ZM38.6504 27.1465C46.5551 27.1465 52.6716 28.9761 56.999 32.6357C61.3262 36.2399 63.4902 41.3688 63.4902 48.0225C63.4902 55.0645 61.3264 60.5543 56.999 64.4912C52.6716 68.3726 46.5551 70.3125 38.6504 70.3125H30.2559V85.4502H10.1768V27.1465H38.6504ZM98.8486 27.1465C107.1 27.1465 113.475 28.9761 117.976 32.6357C122.476 36.2399 124.727 41.3687 124.727 48.0225C124.727 55.0645 122.476 60.5543 117.976 64.4912C117.094 65.2519 116.138 65.9363 115.112 66.5479L127.063 85.4502H104.388L97.0762 70.3125H89.5879V85.4502H69.5088V27.1465H98.8486ZM237.794 57.5879L252.767 27.1465H274.058V85.4502H256.488V53.5117L244.285 79.7949H231.216L219.013 53.5117V85.4502H201.443V27.1465H222.734L237.794 57.5879ZM311.226 27.1465C319.13 27.1465 325.247 28.9761 329.574 32.6357C333.901 36.2399 336.064 41.3688 336.064 48.0225C336.064 55.0644 333.902 60.5544 329.574 64.4912C325.247 68.3726 319.13 70.3125 311.226 70.3125H302.83V85.4502H282.751V27.1465H311.226ZM392.801 42.3672H375.491V85.4502H355.412V42.3672H338.189V27.1465H392.801V42.3672ZM441.089 31.2764C448.113 31.2764 454.077 36.6181 454.078 43.5264V55.3291C454.078 62.2378 448.113 67.5801 441.089 67.5801H406.239L415.777 76.4688C417.955 78.4981 417.954 81.8546 415.777 83.8838C413.752 85.77 410.565 85.8304 408.467 84.0615L408.268 83.8838L389.2 66.1191C387.024 64.09 387.023 60.7323 389.2 58.7031L408.268 40.9365V40.9355C410.358 38.9887 413.686 38.9904 415.776 40.9355L415.777 40.9365C417.955 42.9659 417.954 46.3224 415.777 48.3516L406.237 57.2412H441.089C442.45 57.2412 443.3 56.2498 443.3 55.3291V43.5273L443.29 43.3535C443.191 42.4856 442.364 41.6133 441.089 41.6133H426.088V31.2764H441.089ZM162.773 41.9512C161.043 41.9512 159.369 42.3114 157.754 43.0322C156.196 43.6976 154.811 44.6956 153.6 46.0264C152.446 47.3017 151.522 48.7987 150.83 50.5176C150.138 52.2365 149.792 54.1498 149.792 56.2568C149.792 58.3084 150.138 60.2218 150.83 61.9961C151.522 63.7703 152.475 65.3226 153.687 66.6533C154.898 67.9286 156.283 68.9266 157.841 69.6475C159.399 70.3682 161.043 70.7285 162.773 70.7285C164.504 70.7285 166.12 70.3682 167.62 69.6475C169.12 68.9266 170.448 67.9286 171.602 66.6533C172.755 65.3227 173.65 63.7702 174.284 61.9961C174.919 60.2218 175.236 58.3084 175.236 56.2568C175.236 54.1498 174.919 52.2365 174.284 50.5176C173.65 48.7988 172.755 47.3016 171.602 46.0264C170.448 44.6956 169.12 43.6976 167.62 43.0322C166.12 42.3115 164.504 41.9512 162.773 41.9512ZM30.2559 55.6748H37.6123C39.8047 55.6748 41.4779 55.0645 42.6318 53.8447C43.8435 52.5694 44.4492 50.8224 44.4492 48.6045C44.4492 46.4421 43.8435 44.7786 42.6318 43.6143C41.4779 42.3945 39.8047 41.7842 37.6123 41.7842H30.2559V55.6748ZM89.5879 55.6748H98.8486C101.041 55.6748 102.714 55.0645 103.868 53.8447C105.08 52.5694 105.686 50.8224 105.686 48.6045C105.685 46.4421 105.08 44.7786 103.868 43.6143C102.714 42.3945 101.041 41.7842 98.8486 41.7842H89.5879V55.6748ZM302.83 55.6748H310.188C312.38 55.6747 314.053 55.0645 315.207 53.8447C316.419 52.5694 317.024 50.8224 317.024 48.6045C317.024 46.4422 316.419 44.7786 315.207 43.6143C314.053 42.3945 312.38 41.7843 310.188 41.7842H302.83V55.6748Z" fill="#FFFFFF"/>
</svg>
